<?xml version="1.0" encoding="UTF-8"?>
<svg xmlns="http://www.w3.org/2000/svg" xmlns:xlink="http://www.w3.org/1999/xlink" viewBox="0 0 900 500">
  <defs>
    <style>
      .cls-1 {
        fill: #ad0bad;
      }

      .cls-2 {
        fill: url(#Degradado_sin_nombre_33);
      }

      .cls-3 {
        fill: url(#Degradado_sin_nombre_33-3);
      }

      .cls-4 {
        fill: #e84b02;
      }

      .cls-5 {
        fill: url(#Degradado_sin_nombre_3);
      }

      .cls-6 {
        fill: url(#Degradado_sin_nombre_169);
      }

      .cls-7 {
        fill: #d627e0;
      }

      .cls-8 {
        fill: url(#Degradado_sin_nombre_33-4);
      }

      .cls-9 {
        fill: url(#Degradado_sin_nombre_136);
      }

      .cls-10 {
        fill: #b32ab7;
      }

      .cls-11 {
        fill: #c437d3;
      }

      .cls-12 {
        fill: url(#Degradado_sin_nombre_33-2);
      }

      .cls-13 {
        fill: #55057a;
      }

      .cls-14 {
        fill: url(#Degradado_sin_nombre_154);
      }
    </style>
    <linearGradient id="Degradado_sin_nombre_136" data-name="Degradado sin nombre 136" x1="240.77" y1="259.96" x2="565.51" y2="259.96" gradientUnits="userSpaceOnUse">
      <stop offset="0" stop-color="#a702e8"/>
      <stop offset=".15" stop-color="#af04e4"/>
      <stop offset=".33" stop-color="#b44fc9"/>
      <stop offset=".47" stop-color="#c437d3"/>
      <stop offset=".61" stop-color="#d00cd5" stop-opacity=".7"/>
      <stop offset=".74" stop-color="#d80ed1" stop-opacity=".6"/>
      <stop offset="1" stop-color="#e010cd" stop-opacity=".4"/>
    </linearGradient>
    <linearGradient id="Degradado_sin_nombre_3" data-name="Degradado sin nombre 3" x1="237.53" y1="134.9" x2="739.59" y2="134.9" gradientUnits="userSpaceOnUse">
      <stop offset="0" stop-color="#a702e8" stop-opacity=".06"/>
      <stop offset=".28" stop-color="#a702e8" stop-opacity=".12"/>
      <stop offset=".51" stop-color="#a702e8" stop-opacity=".25"/>
      <stop offset=".73" stop-color="#a702e8" stop-opacity=".18"/>
      <stop offset=".99" stop-color="#55057a" stop-opacity=".05"/>
    </linearGradient>
    <linearGradient id="Degradado_sin_nombre_33" data-name="Degradado sin nombre 33" x1="586.55" y1="135.8" x2="735.66" y2="135.8" gradientTransform="translate(-31.69 118.38) rotate(-10.54) scale(1.03 1.01)" gradientUnits="userSpaceOnUse">
      <stop offset="0" stop-color="#a544d8"/>
      <stop offset=".44" stop-color="#a702e8"/>
      <stop offset="1" stop-color="#55057a"/>
    </linearGradient>
    <linearGradient id="Degradado_sin_nombre_33-2" data-name="Degradado sin nombre 33" x1="625.79" y1="164.24" x2="678.05" y2="164.24" xlink:href="#Degradado_sin_nombre_33"/>
    <linearGradient id="Degradado_sin_nombre_33-3" data-name="Degradado sin nombre 33" x1="625.12" y1="106.45" x2="678.17" y2="107.25" xlink:href="#Degradado_sin_nombre_33"/>
    <linearGradient id="Degradado_sin_nombre_33-4" data-name="Degradado sin nombre 33" x1="653.78" y1="107.66" x2="654.33" y2="107.67" xlink:href="#Degradado_sin_nombre_33"/>
    <linearGradient id="Degradado_sin_nombre_169" data-name="Degradado sin nombre 169" x1="595.95" y1="321.42" x2="720.63" y2="294.35" gradientUnits="userSpaceOnUse">
      <stop offset="0" stop-color="#ce65ce"/>
      <stop offset=".29" stop-color="#d845d1"/>
      <stop offset=".57" stop-color="#e010cd"/>
      <stop offset="1" stop-color="#a80fa1"/>
    </linearGradient>
    <linearGradient id="Degradado_sin_nombre_154" data-name="Degradado sin nombre 154" x1="628.77" y1="224.37" x2="706.15" y2="224.37" gradientUnits="userSpaceOnUse">
      <stop offset="0" stop-color="#e84b02"/>
      <stop offset=".11" stop-color="#e04805"/>
      <stop offset=".26" stop-color="#d94607"/>
      <stop offset=".41" stop-color="#c9410c"/>
      <stop offset=".73" stop-color="#ba3c11"/>
      <stop offset="1" stop-color="#b23914"/>
    </linearGradient>
  </defs>
  <g id="MIXCO">
    <g>
      <path class="cls-4" d="m282.33,276.25v-4.65c3.98-.16,6.96-.5,8.95-1.01,1.99-.52,3.3-1.49,3.94-2.92.64-1.43.95-3.54.95-6.33v-54.66c0-2.86-.32-4.99-.95-6.39-.64-1.39-1.95-2.37-3.94-2.92-1.99-.56-4.97-.87-8.95-.96v-4.65c2.15.08,5.11.16,8.89.24,3.78.08,8.13.12,13.07.12,4.61,0,8.79-.04,12.53-.12,3.74-.08,6.76-.16,9.07-.24v4.65c-4.14.08-7.16.4-9.07.96-1.91.56-3.22,1.53-3.94,2.92-.72,1.39-1.07,3.52-1.07,6.39v54.66c0,2.86.32,4.99.96,6.39.64,1.39,1.97,2.35,4,2.86,2.03.52,5.07.86,9.13,1.01v4.65c-2.31-.08-5.33-.16-9.07-.24-3.74-.08-7.92-.12-12.53-.12-4.93,0-9.29.04-13.07.12-3.78.08-6.74.16-8.89.24Z"/>
      <path class="cls-4" d="m336.03,276.25v-4.65c2.86-.48,5.39-1.17,7.58-2.09,2.19-.91,4.34-2.23,6.45-3.94,2.11-1.71,4.36-3.96,6.74-6.74l20.89-25.3,3.7,2.63-15.52,18.86c-2.79,3.34-4.36,6.25-4.71,8.71-.36,2.47.4,4.34,2.27,5.61,1.87,1.27,4.91,2.03,9.13,2.27v4.65c-2.39-.16-5.27-.26-8.65-.3-3.38-.04-7.06-.06-11.04-.06-3.1,0-5.93.02-8.47.06-2.55.04-5.33.14-8.35.3Zm52.16,0v-4.65c5.17-.16,8.39-.99,9.67-2.51,1.27-1.51.67-3.82-1.79-6.92l-44.28-58.12c-2.31-2.63-4.52-4.55-6.62-5.79-2.11-1.23-5.03-1.85-8.77-1.85v-4.65c2.86.08,6.05.18,9.55.3,3.5.12,7.28.18,11.34.18,4.93,0,9.23-.04,12.89-.12,3.66-.08,6.76-.2,9.31-.36v4.65c-5.17.16-8.4.98-9.67,2.45-1.27,1.47-.68,3.8,1.79,6.98l44.4,58.13c2.15,2.71,4.3,4.59,6.44,5.67s5.05,1.73,8.71,1.97v4.65c-2.63-.08-5.71-.18-9.25-.3-3.54-.12-7.38-.18-11.52-.18-4.93,0-9.21.04-12.83.12-3.62.08-6.74.2-9.37.36Zm-1.31-43.09l-4.06-2.27,14.92-18.38c2.55-3.42,4.04-6.27,4.48-8.53.44-2.27-.2-4.06-1.91-5.37-1.71-1.31-4.56-2.05-8.53-2.21v-4.65c3.18.08,6.31.16,9.37.24,3.06.08,6.15.12,9.25.12s5.83-.04,8.41-.12c2.58-.08,5.31-.16,8.18-.24v4.65c-2.86.4-5.41,1.06-7.64,1.97-2.23.92-4.38,2.23-6.45,3.94-2.07,1.71-4.26,4.08-6.56,7.1l-19.46,23.75Z"/>
      <path class="cls-4" d="m478.66,277.92c-8.28,0-15.48-1.77-21.6-5.31-6.13-3.54-10.9-8.51-14.32-14.92-3.42-6.4-5.13-13.98-5.13-22.74s1.75-16.73,5.25-23.45c3.5-6.72,8.41-11.97,14.74-15.75,6.33-3.78,13.59-5.67,21.78-5.67,3.82,0,7.22.38,10.21,1.13,2.98.76,5.55,1.67,7.7,2.75,2.15,1.07,3.98,1.99,5.49,2.75,1.51.76,2.87,1.13,4.06,1.13,1.27,0,2.25-.56,2.92-1.67.67-1.11,1.25-2.94,1.73-5.49h4.77c-.16,2.39-.28,4.93-.36,7.64-.08,2.71-.14,5.97-.18,9.79-.04,3.82-.06,8.63-.06,14.44h-4.77c-.88-5.65-2.63-10.52-5.25-14.62-2.63-4.1-5.91-7.24-9.85-9.43-3.94-2.19-8.34-3.28-13.19-3.28-8.91,0-15.87,3.4-20.89,10.21-5.01,6.8-7.52,16.29-7.52,28.47s2.52,21.72,7.58,28.65c5.05,6.92,12,10.38,20.83,10.38,4.93,0,9.37-1.09,13.31-3.28,3.94-2.19,7.2-5.35,9.79-9.49,2.58-4.14,4.36-9.03,5.31-14.68h4.77c0,5.57.02,10.25.06,14.02.04,3.78.1,7.06.18,9.85.08,2.79.16,5.45.24,8h-4.77c-.4-2.63-.92-4.46-1.55-5.49-.64-1.03-1.59-1.55-2.86-1.55-1.43,0-2.92.38-4.48,1.13-1.55.76-3.4,1.65-5.55,2.69-2.15,1.04-4.7,1.93-7.64,2.69-2.95.75-6.53,1.13-10.74,1.13Z"/>
      <path class="cls-4" d="m578.2,277.92c-8.91,0-16.69-1.79-23.33-5.37-6.64-3.58-11.8-8.59-15.46-15.04-3.66-6.45-5.49-14.16-5.49-23.15s1.85-16.49,5.55-23.21c3.7-6.72,8.89-11.92,15.58-15.58,6.68-3.66,14.4-5.49,23.16-5.49s16.81,1.79,23.45,5.37c6.64,3.58,11.83,8.59,15.58,15.04,3.74,6.45,5.61,14.16,5.61,23.15s-1.89,16.59-5.67,23.27c-3.78,6.68-8.99,11.86-15.63,15.52-6.64,3.66-14.42,5.49-23.33,5.49Zm.24-4.42c5.41,0,10.22-1.65,14.44-4.95,4.22-3.3,7.5-7.96,9.85-13.96,2.35-6.01,3.52-12.95,3.52-20.83s-1.23-14.74-3.7-20.59c-2.47-5.85-5.83-10.42-10.09-13.73-4.26-3.3-9.05-4.95-14.38-4.95s-10.31,1.63-14.44,4.89c-4.14,3.26-7.36,7.88-9.67,13.85-2.31,5.97-3.46,12.97-3.46,21.01s1.21,14.76,3.64,20.65c2.43,5.89,5.77,10.46,10.03,13.73,4.26,3.26,9.01,4.89,14.26,4.89Z"/>
    </g>
    <path class="cls-9" d="m588.44,310.27s-1.49,12.28,5.12,17.91c-.3.94-.51,1.47-.58,1.47-47.93-40.39-369.32-45.56-369.32-45.56l.06-6.27s3.32.02,9.34.07c.4-.08.77-.17,1.1-.27,1.94-.57,3.24-1.65,3.9-3.24.66-1.59.99-3.92.99-7.01v-70.1h-1.98l-31.34,87.56h-4.77l-34.52-85.44h-1.98v64.67c0,3.71.4,6.59,1.19,8.67.79,2.07,2.36,3.52,4.7,4.36,2.33.84,5.93,1.39,10.78,1.65v5.16c-1.77-.17-4.35-.28-7.74-.33-3.4-.04-7.21-.07-11.44-.07-3.88,0-7.43.03-10.65.07-3.22.05-5.75.16-7.6.33v-5.16c4.23-.26,7.47-.83,9.72-1.72,2.25-.88,3.74-2.31,4.49-4.29.75-1.99,1.13-4.74,1.13-8.27v-57.67c0-3.26-.35-5.64-1.06-7.14s-2.14-2.55-4.3-3.17c-2.16-.62-5.49-.97-9.98-1.06v-5.16c1.93.09,4.56.18,7.87.27,3.3.09,7.07.13,11.3.13,3.71,0,7.17-.04,10.39-.13,3.21-.09,5.88-.18,8-.27l27.88,69.59,24.89-69.59c3,.18,5.77.29,8.33.33,2.56.05,5.25.07,8.07.07,4.41,0,8.55-.04,12.43-.13,3.88-.09,6.88-.18,8.99-.27v5.16c-4.41.09-7.69.46-9.85,1.12-2.16.67-3.62,1.75-4.36,3.24-.75,1.5-1.13,3.84-1.13,7.01v60.58c0,3.17.35,5.53,1.06,7.07.71,1.55,2.18,2.61,4.43,3.18.8.2,1.73.38,2.78.53,60.42.5,174.77-1.04,254.38,2.07,6.61.26,13.79.79,21.12,1.49,21.57,2.04,44.47,5.51,58.31,7.57.34.05.68.1,1.01.15l.1,4.39-3.39,1.97.2,12.09c-5.42,1.64-8.07,2.39-8.07,2.39Z"/>
  </g>
  <g id="imagotipo">
    <g id="avion">
      <path id="est_avion" data-name="est avion" class="cls-5" d="m739.22,136.69c-1.28-1.44-3.38-1.86-5.17-2.33-2.12-.56-4.23-.86-6.39-1.19-8.62-1.32-17.38-1.07-26.08-1.02-4.47.03-8.95.12-13.42.2-2.09.04-4.18.11-6.27.06-1.65-.04-4.25.26-5.4-1.12,1.1-.06,2.06.66,3.06.06-1.36-.48-2.45-1.61-3.51-2.54-1.26-1.11-2.49-2.23-3.78-3.3,1.05,0,2.07,0,3.09,0,1.49-.01,3.14.16,4.62-.06,1.44-.21,1.22-1.96,1.16-3.09-.09-1.63-.5-2.18-2.18-2.23-1.49-.04-2.98-.07-4.47-.05-1.12.02-2.94-.18-3.96.34-.29.15-.43.4-.72.53-.43.18-1.52.28-1.98.18-1.07-.24-2.13-1.65-2.93-2.38-.93-.84-1.85-1.68-2.78-2.53-3.92-3.58-7.82-7.18-11.7-10.8-3.86-3.61-35.37-20.74-35.26-20.66-45.03,33.91-82.82,68.01-365.73,60.95l-11.88,29.65s391.27,8.5,391.47,8.75c-.24.16-.47.32-.71.48v.11h3.72c.24,1.08,2.71-.45,3.23-.68.67-.29,1.47-.43,2.1-.74.58-.29,1.12-.94,1.6-1.36,2.11-1.85,4.13-3.78,6.19-5.68,3.94-3.65,7.76-7.41,11.68-11.07,2.02-1.88,3.99-3.82,5.99-5.72,1.05-.99,2.11-1.96,3.16-2.95.51-.48,1.12-1.32,1.83-1.53.69-.2,1.81,0,2.43.3.48.23.57.44,1.17.52.63.08,1.29.05,1.92.07,1.37.05,2.74.11,4.12.08.9-.02,2.22.1,3.04-.32.9-.46.69-1.58.69-2.43,0-.82.3-2.23-.67-2.6-.53-.2-1.46-.06-2.03-.06-.66,0-1.32-.01-1.98-.01-1.39,0-2.73,0-4.1.18.67-1.26,2.45-2.34,3.53-3.27,1.18-1.02,2.3-2.16,3.71-2.85-1.05-.3-1.9,0-2.94.1.47-.93,1.46-.87,2.39-1.02,1.18-.2,2.33-.21,3.53-.21,2.43,0,4.86.01,7.28.02,5.03,0,10.06,0,15.09-.02,8.7-.05,17.42-.1,25.96-1.88,1.42-.29,10.56-2.25,8.26-4.84Zm-90.04,37.44s.02.02.03.03"/>
      <g id="avion-2" data-name="avion">
        <path class="cls-2" d="m734.29,112.94c-1.57-1.34-3.75-1.4-5.63-1.59-2.22-.22-4.38-.17-6.59-.13-8.86.14-17.52,2.04-26.17,3.71-4.45.86-8.88,1.8-13.32,2.7-2.07.43-4.14.89-6.23,1.22-.9.15-2.06.46-3.16.5h-.02s-30.58,6.14-30.58,6.14c.02.06.04.12.06.17-4.97,1.22-10.08,1.87-15.09,2.96-4.98,1.09-9.97,2.38-14.8,4.01-1,.33-2.02,1.02-3.07,1.17-1.17.16-2.03-.73-2.94-1.41-2.07-1.56-4.21-3.04-6.27-4.61-2.06-1.55-4.12-3.43-6.35-4.69-1.05-.59-2-.24-3.08-.02-1.08.22-2.45.24-3.42.73,2.34,4.75,4.88,9.4,7.32,14.09-.73.22-2.13.34-2.12,1.42-.87.39-1.75.63-2.65.9-.35.1-.78.14-1.08.33-.22.14-.28.38-.47.52-1.06.83-2.72,1.2-3.94,1.76,0,.04.03.09.03.13.95.27,2.13.26,3.11.23.88-.02,1.57.35,2.42.3.78-.06,2.7-.59,3.37-.15.37.23.11.42.62.56.46.13,1.34-.13,1.83-.17-.57,5.31-1.31,10.67-1.62,16,1.24-.23,2.46-.54,3.7-.77,1.09-.21,1.98-.33,2.72-1.29,1.54-1.99,2.77-4.43,4.1-6.61,1.33-2.2,2.69-4.37,4.05-6.56.55-.88,1.03-1.99,2.05-2.35,1.03-.36,2.36-.15,3.45-.2,10.24-.53,20.17-2.82,30.2-4.69v.04s31.99-5.95,31.99-5.95c.86-.25,1.73-.42,2.62-.59,2.41-.45,4.83-.88,7.25-1.33,5-.92,10.01-1.85,15.02-2.81,8.64-1.66,17.31-3.33,25.46-6.87,1.34-.58,10.05-4.41,7.23-6.83Z"/>
        <path class="cls-12" d="m678.69,139c-.57-.12-1.47.21-2.04.32-.66.11-1.31.22-1.97.35-1.37.25-2.71.49-4.04.96.41-1.51,1.96-3.02,2.84-4.24.96-1.34,1.85-2.79,3.11-3.81-1.11-.13-1.9.35-2.91.65.28-1.1,1.28-1.22,2.17-1.56.28-.1.57-.21.85-.29l-31.98,5.95c.67,2.91.25,6.06.48,9.04.25-.03.44-.05.65-.07,0,1.39.01,2.76.02,4.19-1.32-.18-1.5,2.02-1.83,3-.58,1.71-1.17,3.4-1.73,5.11-1.09,3.35-2.12,6.71-3.2,10.06l1.27-.24c-.97.18-1.24,2.55-1.5,3.32-.54,1.65-1.17,3.26-1.7,4.92-.55,1.68-1.1,3.37-1.66,5.05-.23.71-.39,1.83-.8,2.43-.32.45-.79.51-1.28.71.1.59.54.18.8.41-.2.22-.4.44-.61.67.02.03.02.07.03.11l3.69-.69c.46,1.13,2.61-1,3.08-1.34.61-.44,1.38-.74,1.95-1.2.52-.42.93-1.24,1.31-1.79,1.73-2.41,3.35-4.9,5-7.37,3.18-4.71,6.21-9.55,9.38-14.28,1.62-2.43,3.18-4.92,4.79-7.37.84-1.27,1.71-2.53,2.54-3.81.42-.62.85-1.65,1.51-2.01.65-.35,1.8-.34,2.48-.12.52.16.65.37,1.26.35.64-.04,1.3-.19,1.93-.29,1.38-.2,2.75-.39,4.12-.66.88-.18,2.23-.3,2.96-.91.8-.67.36-1.86.19-2.79s-.15-2.5-1.2-2.73Z"/>
        <path class="cls-3" d="m673.54,108.02c-.42-1.77-.94-2.3-2.62-2.04-1.49.24-2.98.47-4.46.78-1.11.23-2.96.35-3.86,1.1-.26.22-.35.53-.62.71-.39.28-1.46.59-1.93.56-1.11-.06-2.46-1.42-3.41-2.06-1.09-.75-2.18-1.5-3.28-2.26-4.63-3.19-9.24-6.41-13.83-9.65-4.59-3.24-9.17-6.45-13.83-9.55-.51-.34-1.02-.81-1.55-1.1-.47-.26-.65-.15-1.12-.2-.26-.02-.68-.13-.97-.18-.47-.09-.93-.18-1.41-.32-.58-.17-1.37-.54-1.98-.43-.37.07-.62.37-.96.52-1.01.45-2.27.29-3.26.82.26.15.5.29.73.42-.12.31-.71.05-.51.68,1.42-.26,1.71.5,2.64,1.61,1.01,1.22,2.02,2.44,3.04,3.66,2.09,2.48,4.17,4.96,6.26,7.45-.27.07-.49.12-.77.19,2.65,3.2,5.27,6.42,7.93,9.6.63.76,1.27,1.52,1.91,2.27.58.68,1.34,1.99,2.07,2.43.65.4.85-.15,1.31.7.51.96.82,2.16,1.2,3.2-.23.06-.41.11-.62.17.96,2.81,1.95,5.62,2.93,8.42l30.58-6.14c-.91.03-1.78-.13-2.42-.72,1.09-.26,2.19.34,3.06-.5-1.45-.27-2.76-1.31-4-2.12-1.49-.98-2.93-1.99-4.43-2.92,1.05-.2,2.06-.37,3.06-.57,1.49-.29,3.17-.41,4.58-.92,1.39-.5.82-2.37.52-3.59Z"/>
        <path class="cls-8" d="m647.28,102.3c.04-.06.08-.13.12-.19.16.14.33.3.49.44-.27-.15-.5-.26-.61-.26Z"/>
      </g>
    </g>
    <g id="barco">
      <g>
        <path class="cls-7" d="m651.82,280.14l-16.36,5.85.05,8.16c2.66-.94,7.55-2.59,16.47-5.51l-.15-8.5Z"/>
        <polygon class="cls-7" points="635.39 274.23 635.39 274.57 635.44 283.85 651.78 278.02 651.61 268.78 651.61 268.44 635.39 274.23"/>
        <polygon class="cls-7" points="635.32 262.56 635.37 272.09 635.38 272.43 651.57 266.65 651.57 266.31 651.43 258.59 674.96 259.43 679.18 257.73 651.34 256.72 635.32 262.56"/>
        <polygon class="cls-7" points="654.4 267.48 654.4 276.29 670.51 270.76 670.51 263.52 674.25 263.65 674.25 261.79 670.42 261.65 654.4 267.48"/>
        <path class="cls-7" d="m654.45,278.75l.14,8.89c.1-.03.2-.06.31-.08,0,0,.02,0,.03,0,3.9-1.27,8.48-2.75,13.83-4.47.56-.18,1.13-.36,1.69-.53l.12-7.78,3.78.13-.03-1.86-3.8-.14h-.03s-.26.09-.26.09l-15.77,5.75Z"/>
        <g>
          <polygon class="cls-1" points="728.22 256.96 709.64 256.29 709.64 258.14 728.21 258.8 728.22 256.96"/>
          <polygon class="cls-1" points="674.35 261.42 674.35 270.23 690.46 264.7 690.46 257.45 707.72 258.07 707.72 256.22 690.37 255.59 674.35 261.42"/>
          <polygon class="cls-1" points="728.26 268.21 709.64 267.54 709.64 269.39 728.25 270.05 728.26 268.21"/>
          <path class="cls-1" d="m674.4,272.68v.46s.04,1.86.04,1.86l.1,6.56c5.49-1.51,10.63-2.52,15.82-3.39l.04-2.6.03-1.85.08-5.02,17.21.61v-1.85s-17.26-.62-17.26-.62h-.03s-.26.09-.26.09l-15.77,5.75Z"/>
        </g>
        <path class="cls-6" d="m590.05,310.75s-1.63,13.4,6.04,18.61c2.35,1.59,105.07-.86,105.23-.96,26.08-16.03,34.24-50.35,34.24-50.35,0,0-37.33-1.75-81.21,12.56-17.78,5.8-31.72,10.21-42,13.4l-.25-14.07,19.56.68-.1-1.85-19.56-.7-14.1,8.2.2,12.1c-5.42,1.63-8.07,2.39-8.07,2.39m112.11-9.96c-2.86,0-5.18-2.25-5.18-5.04,0-2.78,2.32-5.04,5.18-5.04s5.18,2.25,5.18,5.04c0,2.78-2.32,5.04-5.18,5.04"/>
      </g>
      <polygon class="cls-11" points="628.65 292.38 624.86 292.31 624.86 293.8 628.64 293.87 628.65 292.38"/>
      <polygon class="cls-11" points="619.25 292.23 619.25 293.72 622.85 293.77 622.85 292.28 619.25 292.23"/>
      <polygon class="cls-11" points="613.68 293.65 617.24 293.7 617.24 292.2 613.69 292.16 613.68 293.65"/>
      <polygon class="cls-11" points="619.25 295.06 619.25 296.55 622.85 296.59 622.85 295.11 619.25 295.06"/>
      <polygon class="cls-11" points="613.73 296.48 617.24 296.52 617.24 295.03 613.74 294.99 613.73 296.48"/>
      <path class="cls-10" d="m600.07,293.75l12.23-6.99v.02s17.29.59,17.29.59v-4.86s0-.01,0-.01l.02-3.69h-.43s0,1.18,0,1.18l-3.98-.09v-1.39s-.34,0-.34,0v1.37s-3.52-.16-3.52-.16v-13.54s-1.29,0-1.29,0v13.48s-2.18-.1-2.18-.1v-1.36s-.34,0-.34,0v1.34l-2.64-.12v-1.43s-.34,0-.34,0v1.41l-2.14-.1v-1.32s-.37.09-.37.09v1.2s-3.01,1.77-3.01,1.77l-.02-1.35-.29.17v1.35s-2.8,1.68-2.8,1.68l-.02-1.33-.29.17v1.33s-2.78,1.67-2.78,1.67v-1.08s-.3.17-.3.17v1.08s-1.85,1.11-1.85,1.11l-.02-1.24-.29.17.03,3.84-.35.2v4.73Zm25.11-11.46l.02-1.98,3.99.15v1.99s-4.01-.17-4.01-.17Zm-3.84-2.15l3.52.16v1.98s-3.52-.15-3.52-.15v-1.99Zm-1.29,1.93l-2.19-.12v-1.98s2.19.1,2.19.1v1.99Zm-2.52-.12l-2.64-.12v-1.99s2.64.12,2.64.12v1.99Zm-5.11-2.23l2.14.1v1.99s-2.14-.1-2.14-.1v-1.99Zm-3.67,1.93l.02,2.13-2.8,1.7-.02-2.13,2.81-1.7Zm.29-.18l2.99-1.77h.02v2.09s-2.97,1.81-2.97,1.81l-.03-2.12Zm-6.19,3.76l2.79-1.7.02,2.13-2.79,1.7-.03-2.13Zm-2.15,1.31l1.86-1.13.02,2.13-1.85,1.09-.03-2.1Z"/>
    </g>
    <path id="camion" class="cls-14" d="m710.44,234.04s.11,0-.17-8.53c-.17-5.17-7.9-14.5-8.93-14.89-1.43-.55-6-.53-6-.53v-8.18l-27.58-1.91-45.07,8.9c3.74,6.82,5.6,14.94,5.6,24.35,0,2.73-.16,5.36-.5,7.89l6.1-.05c.51,3.5,2.5,6.11,4.88,6.11s4.4-2.65,4.89-6.18l9.18-.08s1.06,5.21,5.45,4.94c3.08-.19,5.07-2.6,5.25-4.89h10.47s-.5-6.36,5.34-6.36c0,0-3.78,1.4-3.78,6.95v2.19c0,.99.85,4.96,6.69,4.96s6.2-5.36,6.2-5.36l4.11.2s.52,2.98,5.67,2.77c5.16-.19,5.67-6.15,5.67-6.15l8.08-.06v-5.5l-1.55-.59Zm-73.02,9.94c-.85,0-1.54-1.49-1.54-3.32s.69-3.32,1.54-3.32,1.54,1.49,1.54,3.32-.69,3.32-1.54,3.32Zm37.82-32.14c-.19,5.53-.96,20.9-.96,20.9h-5.56l.32-30.46,24.39,1.39v6.34s-15.79-.12-16.38,0c-.97.21-1.79,1.18-1.81,1.83Zm5.14,34.31c-1.71,0-3.09-2.04-3.09-4.57s1.38-4.56,3.09-4.56,3.09,2.04,3.09,4.56-1.38,4.57-3.09,4.57Zm5.67-21.44s-.98-2.05-1.56-2.38h-5.66c-.51,0-1.66-.46-2.06-1.99-.25-.97.17-4.96.17-6.75,0-1.19.8-1.58,1.26-1.58,1.83,0,7.33.19,7.33.19,0,0,3.78,8.34,4.81,10.72.28.64.35,1.79.35,1.79h-4.64Zm2.33-12.7h12.78s5.33,6.55,6.19,8.73v1.56s-14.26.03-14.26.03l-4.71-10.32Zm8.66,26.38c0,.45-.31.81-.7.81h-2.2c-.39,0-.71-.36-.71-.81v-.95c0-.45.32-.82.71-.82h2.2c.39,0,.7.37.7.82v.95Zm-4.17-4.45l.05-1.69h3.95v-2.38h-3.44v-1.91s0-1.26.86-1.26h14.35c.6,0,.6,1.19.6,1.19v1.84h-2.13l.07,2.52h2.71v1.69h-17.02Zm17.57,4.25c0,.45-.31.81-.7.81h-2.2c-.39,0-.71-.36-.71-.81v-.95c0-.45.32-.82.71-.82h2.2c.39,0,.7.37.7.82v.95Z"/>
  </g>
  <g id="eslogan">
    <g>
      <path d="m163.7,401.57c-.69.36-2.64,1.25-5.41,1.25-4.59,0-6.34-3.17-6.34-5.97,0-5.71,4.39-10.66,9.93-10.66,1.91,0,3.66.69,4.03,1.02l-.59,1.29c-.83-.43-2.05-.89-3.66-.89-4.85,0-8.12,4.55-8.12,8.94,0,2.87,1.55,4.95,5.02,4.95,2.18,0,3.83-.76,4.69-1.22l.46,1.29Z"/>
      <path d="m178.68,402.43c-.07-.99.17-3.04.5-5.18h-.07c-1.91,3.93-4.52,5.58-7.46,5.58-3.2,0-4.98-2.54-4.98-5.31,0-5.91,4.95-11.32,11.49-11.32,1.45,0,3.07.2,4.19.5l-1.48,7.92c-.66,3.5-.79,6.27-.69,7.82h-1.49Zm1.91-14.59c-.43-.17-1.22-.33-2.67-.33-5.02,0-9.67,4.12-9.67,9.83,0,1.75.66,4.19,3.73,4.19s6.77-3.76,7.66-8.55l.96-5.15Z"/>
      <path d="m185.15,402.43l4.52-23.63h1.55l-4.52,23.63h-1.55Z"/>
      <path d="m192.5,402.43l3.04-15.84h1.55l-3.04,15.84h-1.55Zm3.43-20.56c0-.73.5-1.39,1.25-1.39s1.22.63,1.25,1.39c-.03.69-.46,1.39-1.29,1.39s-1.22-.69-1.22-1.39Z"/>
      <path d="m216.83,378.8l-3.8,19.8c-.23,1.29-.46,2.54-.59,3.83h-1.42l.66-3.8h-.07c-1.75,2.58-3.96,4.19-6.8,4.19-3.76,0-5.18-3.07-5.18-5.97,0-5.84,4.85-10.66,10.53-10.66,1.39,0,2.87.26,3.66.63l1.45-8.02h1.55Zm-3.27,9.41c-.76-.36-1.95-.69-3.5-.69-4.75,0-8.85,3.89-8.85,9.27,0,1.85.56,4.75,3.99,4.75,2.97,0,6.44-3.46,7.16-7.33l1.19-6.01Z"/>
      <path d="m229.89,402.43c-.07-.99.17-3.04.5-5.18h-.07c-1.91,3.93-4.52,5.58-7.46,5.58-3.2,0-4.98-2.54-4.98-5.31,0-5.91,4.95-11.32,11.49-11.32,1.45,0,3.07.2,4.19.5l-1.48,7.92c-.66,3.5-.79,6.27-.69,7.82h-1.49Zm1.91-14.59c-.43-.17-1.22-.33-2.67-.33-5.02,0-9.67,4.12-9.67,9.83,0,1.75.66,4.19,3.73,4.19s6.77-3.76,7.66-8.55l.96-5.15Z"/>
      <path d="m253.32,378.8l-3.8,19.8c-.23,1.29-.46,2.54-.59,3.83h-1.42l.66-3.8h-.07c-1.75,2.58-3.96,4.19-6.8,4.19-3.76,0-5.18-3.07-5.18-5.97,0-5.84,4.85-10.66,10.53-10.66,1.39,0,2.87.26,3.66.63l1.45-8.02h1.55Zm-3.27,9.41c-.76-.36-1.95-.69-3.5-.69-4.75,0-8.85,3.89-8.85,9.27,0,1.85.56,4.75,3.99,4.75,2.97,0,6.44-3.46,7.16-7.33l1.19-6.01Z"/>
      <path d="m262.53,386.59l2.34,9.51c.53,2.11.83,3.43,1.02,4.55h.1c.46-.92.99-2.05,1.98-3.99l5.12-10.07h1.68l-6.4,12.25c-1.45,2.77-2.84,5.45-5.02,7.79-1.98,2.15-4.06,2.97-4.98,3.2l-.4-1.32c.63-.23,1.95-.69,3.2-1.72,1.09-.89,2.41-2.28,3.56-4.29.13-.23.1-.4.07-.59l-3.86-15.31h1.58Z"/>
      <path d="m281.44,400.55c.73.5,1.98.96,3.14.96,2.24,0,3.86-1.55,3.86-3.33,0-1.45-.5-2.34-2.57-3.46-2.15-1.16-2.71-2.61-2.71-3.96,0-2.41,2.21-4.55,5.18-4.55,1.29,0,2.54.43,3.04.83l-.56,1.32c-.46-.33-1.49-.83-2.67-.83-1.95,0-3.47,1.35-3.47,3.04,0,1.49.83,2.28,2.57,3.23,2.08,1.12,2.74,2.61,2.74,4.03,0,3.07-2.61,5.02-5.51,5.02-1.65,0-2.94-.53-3.6-1.02l.56-1.25Z"/>
      <path d="m305.1,401.51c-.73.46-2.57,1.32-5.35,1.32-4.36,0-6.07-3.24-6.07-6.44,0-4.95,3.99-10.2,8.88-10.2,3.2,0,4.59,1.88,4.59,3.8,0,4.49-5.78,5.08-11.75,4.95-.26.96-.13,2.77.3,3.83.76,1.85,2.31,2.74,4.26,2.74,2.28,0,3.83-.73,4.69-1.22l.46,1.22Zm-2.81-13.99c-3.3,0-5.91,3.37-6.7,6.14,5.31.1,9.97-.43,9.97-3.53,0-1.75-1.42-2.61-3.27-2.61Z"/>
      <path d="m308.56,406.86c1.12.76,2.61,1.29,4.79,1.29,3.04,0,5.81-1.45,7.06-7l.69-3.07h-.1c-1.49,2.74-4.03,4.36-6.87,4.36-3.73,0-5.28-3.23-5.28-5.64,0-5.84,4.69-10.59,10.36-10.59,1.81,0,4.16.66,5.25,1.25l-2.41,12.87c-.69,3.63-1.68,5.81-3.37,7.29-1.68,1.49-4.03,1.82-5.71,1.82-2.01,0-3.99-.53-5.02-1.32l.59-1.25Zm14.19-18.52c-.66-.33-2.08-.83-3.73-.83-4.98,0-8.58,4.29-8.58,9.04,0,1.72.66,4.59,4.19,4.59,3.14,0,6.4-3.8,7.1-7.43l1.02-5.38Z"/>
      <path d="m342.79,386.59l-2.31,12.01c-.23,1.29-.46,2.54-.59,3.83h-1.45l.56-3.43h-.07c-1.29,2.05-3.7,3.83-6.14,3.83-1.72,0-4.85-.43-4.85-5.25,0-.66.1-1.52.33-2.67l1.62-8.32h1.55l-1.65,8.55c-.2,1.02-.3,1.78-.3,2.48,0,2.34.96,3.83,3.63,3.83,2.34,0,5.78-2.54,6.5-6.4l1.62-8.45h1.55Z"/>
      <path d="m345.59,402.43l2.05-10.73c.33-1.72.63-3.4.86-5.12h1.42c-.2,1.22-.4,2.44-.63,3.7h.1c1.02-2.31,2.77-4.09,4.98-4.09.26,0,.66.03.86.1l-.3,1.52c-.23-.07-.53-.1-.96-.1-1.85,0-4.62,2.8-5.48,7.46l-1.35,7.26h-1.55Z"/>
      <path d="m355.75,402.43l3.04-15.84h1.55l-3.04,15.84h-1.55Zm3.43-20.56c0-.73.5-1.39,1.25-1.39s1.22.63,1.25,1.39c-.03.69-.46,1.39-1.29,1.39s-1.22-.69-1.22-1.39Z"/>
      <path d="m380.08,378.8l-3.8,19.8c-.23,1.29-.46,2.54-.59,3.83h-1.42l.66-3.8h-.07c-1.75,2.58-3.96,4.19-6.8,4.19-3.76,0-5.18-3.07-5.18-5.97,0-5.84,4.85-10.66,10.53-10.66,1.39,0,2.87.26,3.66.63l1.45-8.02h1.55Zm-3.27,9.41c-.76-.36-1.95-.69-3.5-.69-4.75,0-8.85,3.89-8.85,9.27,0,1.85.56,4.75,3.99,4.75,2.97,0,6.44-3.46,7.16-7.33l1.19-6.01Z"/>
      <path d="m393.14,402.43c-.07-.99.17-3.04.5-5.18h-.07c-1.91,3.93-4.52,5.58-7.46,5.58-3.2,0-4.98-2.54-4.98-5.31,0-5.91,4.95-11.32,11.49-11.32,1.45,0,3.07.2,4.19.5l-1.48,7.92c-.66,3.5-.79,6.27-.69,7.82h-1.49Zm1.91-14.59c-.43-.17-1.22-.33-2.67-.33-5.02,0-9.67,4.12-9.67,9.83,0,1.75.66,4.19,3.73,4.19s6.77-3.76,7.66-8.55l.96-5.15Z"/>
      <path d="m416.57,378.8l-3.8,19.8c-.23,1.29-.46,2.54-.59,3.83h-1.42l.66-3.8h-.07c-1.75,2.58-3.96,4.19-6.8,4.19-3.76,0-5.18-3.07-5.18-5.97,0-5.84,4.85-10.66,10.53-10.66,1.39,0,2.87.26,3.66.63l1.45-8.02h1.55Zm-3.27,9.41c-.76-.36-1.95-.69-3.5-.69-4.75,0-8.85,3.89-8.85,9.27,0,1.85.56,4.75,3.99,4.75,2.97,0,6.44-3.46,7.16-7.33l1.19-6.01Z"/>
      <path d="m435.32,401.51c-.73.46-2.57,1.32-5.35,1.32-4.36,0-6.07-3.24-6.07-6.44,0-4.95,3.99-10.2,8.88-10.2,3.2,0,4.59,1.88,4.59,3.8,0,4.49-5.78,5.08-11.75,4.95-.26.96-.13,2.77.3,3.83.76,1.85,2.31,2.74,4.26,2.74,2.28,0,3.83-.73,4.69-1.22l.46,1.22Zm-2.81-13.99c-3.3,0-5.91,3.37-6.7,6.14,5.31.1,9.97-.43,9.97-3.53,0-1.75-1.42-2.61-3.27-2.61Z"/>
      <path d="m439.31,402.43l2.28-12.01c.26-1.29.46-2.54.63-3.83h1.45l-.53,3.63h.07c1.39-2.38,3.93-4.03,6.7-4.03,1.32,0,4.46.53,4.46,4.92,0,.63-.13,1.62-.3,2.54l-1.68,8.78h-1.55l1.72-9.01c.1-.59.23-1.42.23-2.08,0-2.15-.86-3.79-3.53-3.79-2.34,0-6.14,2.51-6.96,7.1l-1.42,7.79h-1.55Z"/>
      <path d="m470.33,382.43l-.79,4.16h4.39l-.26,1.25h-4.39l-1.65,8.84c-.2,1.06-.36,1.85-.36,3s.63,1.85,1.78,1.85c.56,0,1.06-.07,1.42-.2l.17,1.22c-.4.17-1.09.26-1.85.26-2.44,0-3.1-1.72-3.1-3.17,0-1.09.17-2.15.36-3.1l1.68-8.71h-2.57l.26-1.25h2.58l.69-3.76,1.65-.4Z"/>
      <path d="m490.23,386.59l-2.31,12.01c-.23,1.29-.46,2.54-.59,3.83h-1.45l.56-3.43h-.07c-1.29,2.05-3.7,3.83-6.14,3.83-1.72,0-4.85-.43-4.85-5.25,0-.66.1-1.52.33-2.67l1.62-8.32h1.55l-1.65,8.55c-.2,1.02-.3,1.78-.3,2.48,0,2.34.96,3.83,3.63,3.83,2.34,0,5.78-2.54,6.5-6.4l1.62-8.45h1.55Z"/>
      <path d="m492.9,400.55c.73.5,1.98.96,3.14.96,2.24,0,3.86-1.55,3.86-3.33,0-1.45-.5-2.34-2.57-3.46-2.15-1.16-2.71-2.61-2.71-3.96,0-2.41,2.21-4.55,5.18-4.55,1.29,0,2.54.43,3.04.83l-.56,1.32c-.46-.33-1.48-.83-2.67-.83-1.95,0-3.47,1.35-3.47,3.04,0,1.49.83,2.28,2.57,3.23,2.08,1.12,2.74,2.61,2.74,4.03,0,3.07-2.61,5.02-5.51,5.02-1.65,0-2.94-.53-3.6-1.02l.56-1.25Z"/>
      <path d="m522.83,401.51c-.73.46-2.57,1.32-5.35,1.32-4.36,0-6.07-3.24-6.07-6.44,0-4.95,3.99-10.2,8.88-10.2,3.2,0,4.59,1.88,4.59,3.8,0,4.49-5.78,5.08-11.75,4.95-.26.96-.13,2.77.3,3.83.76,1.85,2.31,2.74,4.26,2.74,2.28,0,3.83-.73,4.69-1.22l.46,1.22Zm-2.8-13.99c-3.3,0-5.91,3.37-6.7,6.14,5.31.1,9.97-.43,9.97-3.53,0-1.75-1.42-2.61-3.27-2.61Z"/>
      <path d="m526.82,402.43l2.28-12.01c.26-1.29.46-2.54.63-3.83h1.45l-.53,3.63h.07c1.39-2.38,3.93-4.03,6.7-4.03,1.32,0,4.46.53,4.46,4.92,0,.63-.13,1.62-.3,2.54l-1.68,8.78h-1.55l1.72-9.01c.1-.59.23-1.42.23-2.08,0-2.15-.86-3.79-3.53-3.79-2.34,0-6.14,2.51-6.96,7.1l-1.42,7.79h-1.55Z"/>
      <path d="m547.31,386.59l2.18,10.43c.36,1.82.63,3.1.73,3.66h.07c.3-.56.63-1.39,1.72-3.23l6.4-10.86h1.65l-9.44,15.84h-1.45l-3.4-15.84h1.55Z"/>
      <path d="m560.58,402.43l3.04-15.84h1.55l-3.04,15.84h-1.55Zm3.43-20.56c0-.73.5-1.39,1.25-1.39s1.22.63,1.25,1.39c-.03.69-.46,1.39-1.29,1.39s-1.22-.69-1.22-1.39Z"/>
      <path d="m583.58,393.39c0,4.65-3.7,9.44-9.04,9.44-4.49,0-6.73-3.47-6.73-6.87,0-5.58,4.06-9.77,8.98-9.77s6.8,3.63,6.8,7.2Zm-14.19,2.51c0,3.3,2.28,5.64,5.31,5.64,3.66,0,7.29-3.33,7.29-8.22,0-2.11-1.22-5.84-5.28-5.84s-7.33,3.7-7.33,8.42Z"/>
      <path d="m586.05,400.55c.73.5,1.98.96,3.14.96,2.24,0,3.86-1.55,3.86-3.33,0-1.45-.5-2.34-2.57-3.46-2.15-1.16-2.71-2.61-2.71-3.96,0-2.41,2.21-4.55,5.18-4.55,1.29,0,2.54.43,3.04.83l-.56,1.32c-.46-.33-1.48-.83-2.67-.83-1.95,0-3.47,1.35-3.47,3.04,0,1.49.83,2.28,2.57,3.23,2.08,1.12,2.74,2.61,2.74,4.03,0,3.07-2.61,5.02-5.51,5.02-1.65,0-2.94-.53-3.6-1.02l.56-1.25Z"/>
    </g>
  </g>
  <g id="ENCOMIENDAS">
    <g>
      <path class="cls-13" d="m144.66,181.54l6.47-27.03h16.77l-.98,4.09h-11.91l-1.61,6.79h10.55l-.98,4.02h-10.49l-1.95,8.03h12.79l-.98,4.1h-17.71Z"/>
      <path class="cls-13" d="m184.78,181.54c-.49-1.51-1.06-3.13-1.69-4.88-.64-1.74-1.31-3.48-2.02-5.23-.71-1.74-1.45-3.44-2.22-5.09-.77-1.65-1.54-3.17-2.31-4.54l-4.73,19.73h-4.84l6.47-27.03h3.95c.73,1.17,1.49,2.51,2.28,4.02.79,1.51,1.56,3.09,2.31,4.74.75,1.65,1.48,3.31,2.18,4.97.7,1.66,1.31,3.24,1.83,4.72l4.34-18.45h4.88l-6.47,27.03h-3.95Z"/>
      <path class="cls-13" d="m215.37,180.37c-.86.44-1.95.85-3.28,1.21s-2.94.55-4.84.55c-1.66,0-3.15-.25-4.45-.76-1.3-.51-2.4-1.24-3.31-2.2s-1.61-2.12-2.09-3.47c-.48-1.35-.72-2.87-.72-4.56,0-2.18.36-4.31,1.09-6.38.73-2.07,1.78-3.91,3.16-5.52,1.38-1.61,3.05-2.91,5.03-3.88,1.98-.98,4.21-1.46,6.71-1.46,1.64,0,3.06.18,4.27.55,1.21.36,2.27.81,3.18,1.33l-1.87,3.94c-.83-.49-1.72-.88-2.67-1.15-.95-.27-2.02-.41-3.22-.41-1.64,0-3.11.36-4.41,1.09-1.3.73-2.41,1.68-3.33,2.87s-1.62,2.53-2.11,4.04c-.48,1.51-.72,3.04-.72,4.6,0,2.42.53,4.21,1.58,5.36,1.05,1.16,2.59,1.74,4.62,1.74,1.56,0,2.89-.18,3.98-.53s2.03-.71,2.81-1.07l.58,4.13Z"/>
      <path class="cls-13" d="m229.56,182.13c-1.51,0-2.89-.24-4.15-.72-1.26-.48-2.35-1.18-3.28-2.09-.92-.91-1.64-2.04-2.14-3.39-.51-1.35-.76-2.9-.76-4.64,0-2.08.34-4.16,1.01-6.24.68-2.08,1.67-3.94,2.98-5.6,1.31-1.65,2.93-2.99,4.86-4.02,1.92-1.03,4.13-1.54,6.63-1.54,1.51,0,2.9.24,4.17.72,1.27.48,2.37,1.18,3.28,2.09.91.91,1.62,2.04,2.12,3.39.51,1.35.76,2.9.76,4.64,0,2.08-.34,4.16-1.01,6.24-.68,2.08-1.67,3.95-2.96,5.6-1.3,1.65-2.92,2.99-4.86,4.02s-4.15,1.54-6.65,1.54Zm4.64-23.98c-1.48,0-2.83.37-4.04,1.11-1.21.74-2.24,1.71-3.1,2.91-.86,1.2-1.53,2.55-2.01,4.08-.48,1.52-.72,3.06-.72,4.62,0,2.13.45,3.84,1.37,5.11.91,1.27,2.37,1.91,4.37,1.91,1.48,0,2.83-.37,4.06-1.11,1.22-.74,2.26-1.71,3.12-2.91.86-1.2,1.53-2.55,2.01-4.08s.72-3.06.72-4.62c0-2.13-.46-3.83-1.38-5.11s-2.38-1.91-4.39-1.91Z"/>
      <path class="cls-13" d="m258.85,154.52c.24.91.51,2.09.81,3.53.3,1.44.61,2.98.91,4.62.3,1.64.61,3.29.91,4.95.3,1.66.57,3.17.81,4.52.89-1.38,1.87-2.89,2.96-4.52,1.08-1.64,2.17-3.26,3.25-4.88,1.08-1.61,2.13-3.14,3.13-4.58,1-1.44,1.87-2.66,2.6-3.65h4.59c-.21,1.98-.46,4.08-.74,6.32-.29,2.24-.62,4.52-.99,6.86-.38,2.34-.77,4.69-1.19,7.04-.42,2.35-.83,4.62-1.25,6.81h-4.88c.68-3.15,1.33-6.38,1.96-9.69.63-3.31,1.2-6.6,1.73-9.85-.44.62-.95,1.38-1.52,2.26-.57.88-1.19,1.81-1.84,2.79-.65.97-1.32,1.98-1.99,3.02-.68,1.04-1.33,2.05-1.97,3.02s-1.23,1.88-1.78,2.71c-.55.83-1.02,1.55-1.41,2.15h-3.78c-.13-.86-.31-1.99-.55-3.39s-.5-2.88-.78-4.43c-.29-1.55-.57-3.05-.84-4.52-.27-1.47-.52-2.68-.73-3.65-1.06,3.25-2.05,6.55-2.97,9.89-.92,3.34-1.8,6.57-2.62,9.69h-4.84c.62-2.24,1.29-4.55,1.99-6.94s1.42-4.76,2.16-7.12c.74-2.35,1.48-4.63,2.2-6.84.73-2.21,1.43-4.25,2.11-6.12h4.56Z"/>
      <path class="cls-13" d="m286.58,154.52h4.91l-6.47,27.03h-4.92l6.47-27.03Z"/>
      <path class="cls-13" d="m291.26,181.54l6.47-27.03h16.77l-.98,4.09h-11.91l-1.61,6.79h10.55l-.97,4.02h-10.49l-1.95,8.03h12.79l-.97,4.1h-17.71Z"/>
      <path class="cls-13" d="m331.38,181.54c-.49-1.51-1.06-3.13-1.69-4.88-.64-1.74-1.31-3.48-2.02-5.23-.71-1.74-1.45-3.44-2.22-5.09-.77-1.65-1.54-3.17-2.32-4.54l-4.73,19.73h-4.84l6.47-27.03h3.95c.73,1.17,1.48,2.51,2.28,4.02.79,1.51,1.56,3.09,2.31,4.74.75,1.65,1.48,3.31,2.18,4.97.7,1.66,1.31,3.24,1.83,4.72l4.34-18.45h4.88l-6.47,27.03h-3.95Z"/>
      <path class="cls-13" d="m367.54,164.89c0,2.42-.39,4.67-1.17,6.75-.78,2.08-1.94,3.87-3.47,5.38-1.53,1.51-3.45,2.69-5.75,3.55-2.3.86-4.97,1.29-8.01,1.29-1.09,0-2.31-.06-3.67-.18-1.35-.12-2.6-.31-3.74-.57l6.28-26.17c1.27-.29,2.56-.47,3.86-.57,1.3-.09,2.5-.14,3.59-.14,1.98,0,3.72.25,5.23.76,1.51.51,2.77,1.22,3.78,2.15,1.01.92,1.78,2.04,2.3,3.35.52,1.31.78,2.78.78,4.39Zm-20.04,12.64c.29.05.62.08.99.1.38.01.97.02,1.77.02,1.87,0,3.56-.3,5.07-.9s2.79-1.45,3.84-2.55c1.05-1.1,1.87-2.43,2.44-3.98.57-1.55.86-3.27.86-5.17,0-2.05-.58-3.68-1.75-4.88-1.17-1.2-3.08-1.79-5.73-1.79-.68,0-1.22.01-1.62.04-.4.03-.84.06-1.31.12l-4.56,18.99Z"/>
      <path class="cls-13" d="m386.58,181.54c-.06-1.1-.14-2.18-.24-3.26-.1-1.08-.2-2.12-.31-3.13h-11.02c-.57,1.02-1.14,2.06-1.73,3.11-.59,1.05-1.18,2.15-1.79,3.29h-5.27c1.59-2.76,3.1-5.36,4.55-7.8s2.85-4.77,4.22-6.98,2.72-4.32,4.06-6.34c1.34-2.01,2.69-3.98,4.04-5.91h4.57c.83,3.87,1.55,8.11,2.15,12.69.6,4.59,1.17,9.37,1.72,14.33h-4.95Zm-2.28-21.88c-.99,1.54-2.09,3.26-3.3,5.17-1.21,1.91-2.49,4.05-3.84,6.41h8.47c-.14-1.85-.33-3.74-.55-5.68s-.49-3.9-.77-5.91Z"/>
      <path class="cls-13" d="m402.06,177.95c.7,0,1.4-.06,2.09-.2.69-.13,1.31-.35,1.87-.66.56-.31,1.01-.73,1.35-1.27.34-.53.51-1.2.51-2.01,0-.6-.13-1.11-.39-1.54-.26-.43-.61-.81-1.05-1.15-.44-.34-.94-.66-1.5-.96-.56-.3-1.15-.62-1.77-.96-.68-.34-1.32-.72-1.93-1.15-.61-.43-1.15-.92-1.62-1.46-.47-.55-.84-1.18-1.11-1.91-.27-.73-.41-1.59-.41-2.57,0-1.2.23-2.29.68-3.3s1.13-1.87,2.03-2.59c.9-.73,2-1.3,3.31-1.72,1.31-.42,2.84-.62,4.58-.62.81,0,1.58.06,2.32.19.74.13,1.44.29,2.09.49.65.19,1.22.41,1.72.64.49.23.88.46,1.17.66l-2.15,3.74c-.55-.44-1.31-.82-2.28-1.13s-2.05-.47-3.22-.47c-.7,0-1.37.07-2.01.21-.64.14-1.2.36-1.68.66-.48.3-.86.69-1.13,1.17-.27.48-.41,1.05-.41,1.7,0,.6.1,1.09.29,1.48.2.39.47.73.82,1.03.35.3.76.57,1.23.82.47.25.98.53,1.52.84.81.44,1.57.88,2.28,1.33.71.44,1.35.95,1.89,1.52.55.57.98,1.23,1.31,1.97.32.74.49,1.63.49,2.67,0,1.46-.27,2.73-.82,3.82s-1.31,2-2.3,2.71c-.99.72-2.16,1.25-3.51,1.62-1.35.36-2.83.55-4.45.55-1.07,0-2.05-.08-2.94-.23-.9-.16-1.7-.35-2.4-.58s-1.31-.48-1.81-.74c-.51-.26-.9-.49-1.19-.7l2.18-3.86c.26.18.6.39,1.03.62.43.23.92.45,1.46.64s1.14.36,1.79.49c.65.13,1.34.2,2.07.2Z"/>
    </g>
  </g>
</svg>